<?xml version="1.0" standalone="no"?>
<!DOCTYPE svg PUBLIC "-//W3C//DTD SVG 20010904//EN"
 "http://www.w3.org/TR/2001/REC-SVG-20010904/DTD/svg10.dtd">
<svg version="1.0" xmlns="http://www.w3.org/2000/svg"
 width="129.000000pt" height="129.000000pt" viewBox="0 0 129.000000 129.000000"
 preserveAspectRatio="xMidYMid meet">
<metadata>
Created by potrace 1.14, written by Peter Selinger 2001-2017
</metadata>
<g transform="translate(0.000000,129.000000) scale(0.100000,-0.100000)"
fill="#000000" stroke="none">
<path d="M569 1275 c-63 -34 -83 -116 -45 -188 19 -34 22 -48 13 -54 -7 -4
-70 -10 -140 -11 -99 -3 -130 -7 -134 -18 -9 -23 16 -43 74 -60 30 -9 57 -23
60 -31 3 -8 -4 -36 -16 -62 -44 -89 -192 -332 -208 -338 -8 -3 -44 8 -79 25
-36 18 -67 32 -69 32 -25 0 39 -129 97 -195 45 -50 153 -135 174 -135 10 0 14
13 14 44 0 33 -7 52 -30 81 -17 21 -27 41 -22 44 5 3 15 18 23 33 l14 26 85
-34 c46 -19 88 -38 93 -43 5 -5 11 -32 14 -60 5 -51 4 -52 -20 -46 -30 8 -47
-16 -47 -67 0 -43 9 -54 95 -119 39 -29 80 -64 93 -76 l23 -24 41 33 c64 53
96 75 218 150 211 131 281 193 331 295 46 92 39 103 -41 61 -122 -64 -145 -83
-158 -126 -13 -43 -41 -62 -184 -118 l-58 -23 0 318 0 318 82 18 c100 21 148
41 148 60 0 22 -13 26 -132 31 -62 3 -123 7 -136 10 l-22 4 25 50 c30 60 32
104 5 148 -34 56 -123 79 -181 47z m108 -97 c19 -39 7 -58 -37 -58 -38 0 -50
11 -50 49 0 47 66 54 87 9z m-22 -623 c0 -391 -7 -510 -25 -430 -8 35 -10 778
-3 844 5 38 7 42 17 25 8 -13 11 -146 11 -439z m-156 131 c0 -157 -3 -170 -38
-161 -41 10 -89 35 -94 50 -7 18 111 235 128 235 2 0 4 -56 4 -124z"/>
</g>
</svg>
